<?xml version="1.0" standalone="no"?>
<!DOCTYPE svg PUBLIC "-//W3C//DTD SVG 20010904//EN"
 "http://www.w3.org/TR/2001/REC-SVG-20010904/DTD/svg10.dtd">
<svg version="1.0" xmlns="http://www.w3.org/2000/svg"
 width="480.000000pt" height="480.000000pt" viewBox="0 0 480.000000 480.000000"
 preserveAspectRatio="xMidYMid meet">

<g transform="translate(0.000000,480.000000) scale(0.100000,-0.100000)"
fill="#000000" stroke="none">
<path d="M671 2939 c-85 -25 -164 -112 -176 -193 -4 -22 -5 -178 -3 -346 3
-268 5 -309 21 -337 23 -43 80 -97 125 -120 35 -17 110 -18 1737 -18 1639 0
1701 1 1735 19 49 26 98 74 123 121 21 39 22 51 22 370 0 303 -2 333 -19 365
-26 49 -74 98 -121 123 l-40 22 -1685 2 c-1066 1 -1697 -2 -1719 -8z"/>
</g>
</svg>
