<?xml version="1.0" standalone="no"?>
<!DOCTYPE svg PUBLIC "-//W3C//DTD SVG 20010904//EN"
 "http://www.w3.org/TR/2001/REC-SVG-20010904/DTD/svg10.dtd">
<svg version="1.0" xmlns="http://www.w3.org/2000/svg"
 width="480.000000pt" height="480.000000pt" viewBox="0 0 480.000000 480.000000"
 preserveAspectRatio="xMidYMid meet">

<g transform="translate(0.000000,480.000000) scale(0.100000,-0.100000)"
fill="#000000" stroke="none">
<path d="M2110 4211 c-70 -22 -130 -74 -166 -141 -18 -33 -19 -72 -22 -627
l-3 -592 -592 -3 c-585 -3 -592 -3 -632 -25 -53 -28 -99 -78 -124 -133 -19
-42 -21 -65 -21 -351 0 -346 4 -370 70 -438 79 -81 33 -76 702 -79 l597 -3 3
-592 c3 -562 4 -594 22 -631 23 -46 74 -99 119 -123 29 -16 66 -18 372 -18
306 0 343 2 372 18 45 24 96 77 119 123 18 37 19 69 22 632 l3 592 578 0 c654
0 638 -2 715 76 73 72 76 92 76 443 0 286 -2 309 -21 351 -25 55 -71 105 -124
133 -40 22 -47 22 -632 25 l-592 3 -3 592 c-3 585 -3 592 -25 632 -25 47 -74
95 -123 121 -32 17 -64 19 -350 21 -173 1 -326 -2 -340 -6z"/>
</g>
</svg>
