<?xml version="1.0" standalone="no"?>
<!DOCTYPE svg PUBLIC "-//W3C//DTD SVG 20010904//EN"
 "http://www.w3.org/TR/2001/REC-SVG-20010904/DTD/svg10.dtd">
<svg version="1.0" xmlns="http://www.w3.org/2000/svg"
 width="1500.000000pt" height="1500.000000pt" viewBox="0 0 1500.000000 1500.000000"
 preserveAspectRatio="xMidYMid meet">

<g transform="translate(0.000000,1500.000000) scale(0.100000,-0.100000)"
fill="#000000" stroke="none">
<path d="M7090 13329 c-207 -27 -394 -84 -585 -179 -185 -92 -303 -178 -461
-335 -194 -193 -329 -387 -435 -623 -106 -238 -153 -468 -153 -742 1 -272 53
-523 164 -793 72 -173 136 -284 256 -437 199 -254 336 -486 350 -593 7 -47 8
-48 36 -42 53 12 232 6 305 -9 40 -9 100 -27 133 -40 33 -14 60 -24 60 -23 0
1 -7 24 -15 51 -19 62 -19 159 -1 219 18 61 116 208 183 275 65 66 120 91 195
92 94 0 161 -31 243 -114 144 -145 204 -341 137 -447 -76 -120 -237 -216 -415
-249 -37 -7 -67 -16 -65 -19 2 -4 45 -89 97 -190 l95 -182 20 43 c28 58 53 65
169 50 169 -21 315 -73 443 -158 62 -42 164 -131 164 -145 0 -13 -109 -96
-157 -120 -25 -12 -74 -23 -124 -27 l-82 -7 98 -60 c146 -90 289 -201 395
-307 71 -71 144 -128 283 -223 267 -180 265 -181 452 18 58 62 105 115 105
118 0 3 -37 28 -82 54 -136 79 -219 172 -188 210 19 22 34 19 141 -30 102 -47
193 -75 240 -75 28 0 35 9 251 286 5 8 -27 23 -104 49 -136 45 -187 72 -194
101 -11 42 -2 44 184 37 98 -3 194 -3 214 1 33 6 41 16 132 169 l97 162 -103
7 c-64 4 -126 14 -163 27 -113 40 -222 130 -297 243 l-36 53 9 115 c8 107 5
228 -7 309 l-5 33 -51 -83 c-91 -146 -239 -285 -385 -358 -65 -32 -184 -74
-242 -85 -32 -6 -31 -3 52 84 287 302 446 737 424 1165 -13 250 -83 527 -196
776 l-29 64 -6 -60 c-36 -351 -153 -554 -392 -677 -310 -160 -639 -166 -934
-18 -152 76 -300 210 -418 376 -269 377 -290 812 -63 1289 118 247 305 486
460 589 191 126 481 230 721 258 l105 12 -75 24 c-112 35 -270 69 -403 87
-127 16 -433 19 -547 4z"/>
<path d="M8110 13020 c-350 -49 -609 -169 -821 -380 -139 -139 -224 -265 -294
-439 -19 -49 -35 -91 -35 -95 0 -3 18 3 40 14 57 29 204 67 315 80 137 18 432
7 560 -19 514 -107 941 -435 1183 -909 184 -360 275 -824 258 -1312 -3 -102
-9 -213 -12 -247 -6 -53 -4 -63 9 -63 31 0 214 101 297 164 267 201 448 503
505 841 23 132 23 363 1 520 -71 495 -314 985 -666 1335 -257 257 -537 416
-865 490 -104 24 -369 35 -475 20z"/>
<path d="M5237 12148 c-212 -283 -371 -637 -441 -981 -37 -183 -50 -337 -43
-537 19 -592 243 -1111 807 -1870 254 -341 345 -445 900 -1020 509 -528 1866
-1881 1927 -1922 16 -10 60 -28 98 -40 84 -27 241 -30 350 -8 39 8 73 15 78
15 4 0 29 -54 56 -120 95 -236 196 -413 306 -535 242 -271 455 -754 536 -1217
26 -152 36 -405 20 -543 -21 -183 -74 -375 -143 -515 l-29 -60 31 35 c52 60
175 250 234 360 205 388 297 777 283 1200 -19 593 -241 1107 -807 1870 -252
339 -345 444 -900 1020 -508 527 -1866 1881 -1928 1922 -15 10 -58 28 -97 40
-84 27 -241 30 -350 8 -38 -8 -73 -15 -78 -15 -4 0 -29 54 -56 120 -95 236
-196 413 -306 535 -242 271 -455 754 -536 1217 -26 152 -36 405 -20 543 21
184 76 380 142 513 16 31 27 57 25 57 -2 0 -29 -33 -59 -72z"/>
<path d="M6240 7129 c-36 -22 -168 -153 -220 -219 l-30 -37 78 -45 c131 -77
216 -168 198 -213 -9 -25 -48 -17 -150 30 -90 42 -194 75 -242 75 -15 0 -53
-42 -137 -149 l-116 -150 97 -32 c142 -46 201 -76 208 -104 3 -13 3 -29 -1
-35 -4 -7 -66 -8 -198 -4 -149 4 -197 2 -216 -8 -14 -7 -63 -78 -117 -168
l-93 -155 92 -6 c51 -3 112 -12 137 -18 119 -33 251 -132 331 -247 l34 -49 -4
-190 c-1 -105 0 -212 4 -239 l7 -47 32 55 c133 239 358 410 618 471 l61 14
-55 -57 c-327 -339 -489 -792 -449 -1252 22 -254 102 -545 204 -746 l24 -47 6
99 c7 128 36 237 91 349 76 154 190 256 368 332 361 152 744 102 1038 -136
177 -143 335 -366 404 -572 122 -364 36 -802 -238 -1214 -106 -159 -276 -332
-388 -393 -223 -121 -541 -219 -723 -223 l-40 0 55 -20 c88 -32 285 -77 415
-95 229 -32 557 -18 760 32 365 91 685 284 928 562 490 560 627 1218 398 1912
-85 257 -170 417 -327 615 -202 255 -344 504 -344 602 0 21 -3 23 -27 16 -16
-4 -80 -7 -143 -6 -120 1 -223 21 -315 62 -25 11 -45 18 -45 17 0 -2 7 -23 16
-47 20 -55 20 -171 1 -226 -40 -116 -183 -296 -271 -340 -44 -22 -59 -25 -126
-21 -97 6 -159 38 -240 125 -95 101 -163 271 -147 369 13 78 131 194 257 253
66 31 167 61 205 61 51 1 48 11 -52 205 l-97 188 -14 -42 c-19 -57 -39 -65
-141 -58 -162 12 -332 68 -462 152 -68 44 -179 140 -179 155 0 12 111 95 159
119 33 17 63 23 126 24 46 1 81 5 77 8 -4 3 -61 41 -127 84 -178 115 -350 256
-411 335 -18 25 -357 260 -421 294 -43 22 -81 20 -123 -5z"/>
<path d="M5587 5330 c-237 -101 -490 -350 -612 -605 -173 -359 -182 -809 -25
-1286 190 -578 581 -1058 1055 -1294 222 -110 380 -153 606 -162 487 -20 923
168 1188 511 85 109 183 295 207 389 l7 29 -49 -25 c-139 -69 -430 -108 -658
-87 -370 33 -663 151 -943 377 -438 354 -677 913 -709 1658 -6 147 8 474 23
511 8 21 -13 17 -90 -16z"/>
</g>
</svg>
