<?xml version="1.0" standalone="no"?>
<!DOCTYPE svg PUBLIC "-//W3C//DTD SVG 20010904//EN"
 "http://www.w3.org/TR/2001/REC-SVG-20010904/DTD/svg10.dtd">
<svg version="1.0" xmlns="http://www.w3.org/2000/svg"
 width="1500.000000pt" height="1500.000000pt" viewBox="0 0 1500.000000 1500.000000"
 preserveAspectRatio="xMidYMid meet">

<g transform="translate(0.000000,1500.000000) scale(0.100000,-0.100000)"
fill="#000000" stroke="none">
<path d="M7217 13680 c-1186 -115 -2179 -876 -2600 -1995 -122 -325 -197 -730
-197 -1075 0 -432 167 -921 511 -1492 255 -424 617 -902 1036 -1367 70 -79
148 -165 171 -192 l44 -49 -39 -44 c-21 -24 -98 -110 -172 -192 -166 -185
-385 -446 -523 -624 -612 -792 -948 -1464 -1018 -2040 -31 -259 11 -677 101
-1007 303 -1105 1192 -1959 2294 -2202 234 -52 366 -65 655 -65 289 0 421 13
655 65 1102 243 1991 1097 2294 2202 90 330 132 748 101 1007 -37 304 -151
644 -335 997 -263 505 -681 1083 -1206 1667 -74 82 -151 168 -172 192 l-39 44
44 49 c23 27 101 113 171 192 161 179 383 444 518 619 692 895 1029 1630 1029
2240 -1 828 -352 1648 -952 2226 -468 450 -1031 726 -1683 824 -158 24 -536
35 -688 20z m420 -355 c133 -18 291 -52 403 -87 l75 -24 -105 -12 c-240 -28
-530 -132 -721 -258 -155 -103 -342 -342 -460 -589 -261 -548 -191 -1055 201
-1455 332 -339 788 -411 1214 -192 239 123 356 326 392 677 l6 60 29 -64 c113
-249 183 -526 196 -776 22 -428 -137 -863 -424 -1165 -83 -87 -84 -90 -52 -84
58 11 177 53 242 85 146 73 294 212 385 358 l51 83 5 -33 c12 -81 15 -202 7
-309 l-9 -115 36 -53 c75 -113 184 -203 297 -243 37 -13 99 -23 163 -27 l103
-7 -97 -162 c-91 -153 -99 -163 -132 -169 -20 -4 -116 -4 -214 -1 -186 7 -195
5 -184 -37 7 -29 58 -56 194 -101 77 -26 109 -41 104 -49 -216 -277 -223 -286
-251 -286 -47 0 -138 28 -240 75 -107 49 -122 52 -141 30 -31 -38 52 -131 188
-210 45 -26 82 -51 82 -54 0 -3 -47 -56 -105 -118 -187 -199 -185 -198 -452
-18 -139 95 -212 152 -283 223 -106 106 -249 217 -395 307 l-98 60 82 7 c50 4
99 15 124 27 48 24 157 107 157 120 0 14 -102 103 -164 145 -128 85 -274 137
-443 158 -116 15 -141 8 -169 -50 l-20 -43 -95 182 c-52 101 -95 186 -97 190
-2 3 28 12 65 19 178 33 339 129 415 249 67 106 7 302 -137 447 -82 83 -149
114 -243 114 -75 -1 -130 -26 -195 -92 -67 -67 -165 -214 -183 -275 -18 -60
-18 -157 1 -219 8 -27 15 -50 15 -51 0 -1 -27 9 -60 23 -33 13 -93 31 -133 40
-73 15 -252 21 -305 9 -28 -6 -29 -5 -36 42 -14 107 -151 339 -350 593 -120
153 -184 264 -256 437 -111 270 -163 521 -164 793 0 274 47 504 153 742 106
236 241 430 435 623 158 157 276 243 461 335 191 95 378 152 585 179 114 15
420 12 547 -4z m948 -325 c328 -74 608 -233 865 -490 423 -422 683 -1033 683
-1605 -1 -177 -20 -306 -68 -451 -86 -260 -242 -480 -455 -640 -83 -63 -266
-164 -297 -164 -13 0 -15 10 -9 63 3 34 9 145 12 247 17 488 -74 952 -258
1312 -242 474 -669 802 -1183 909 -128 26 -423 37 -560 19 -111 -13 -258 -51
-315 -80 -22 -11 -40 -17 -40 -14 0 4 16 46 35 95 70 174 155 300 294 439 212
211 471 331 821 380 106 15 371 4 475 -20z m-3314 -837 c-167 -333 -196 -801
-77 -1271 97 -381 292 -780 491 -1002 110 -122 211 -299 306 -535 27 -66 52
-120 56 -120 5 0 40 7 78 15 109 22 266 19 350 -8 39 -12 82 -30 97 -40 16
-10 333 -320 705 -688 812 -802 1717 -1735 1884 -1944 333 -415 623 -846 775
-1150 174 -346 260 -675 271 -1030 14 -423 -78 -812 -283 -1200 -59 -110 -182
-300 -234 -360 l-31 -35 29 60 c229 467 195 1115 -91 1751 -98 219 -205 393
-322 524 -110 122 -211 299 -306 535 -27 66 -52 120 -56 120 -5 0 -39 -7 -78
-15 -109 -22 -266 -19 -350 8 -38 12 -82 30 -98 40 -15 10 -332 320 -705 688
-812 802 -1716 1736 -1883 1944 -334 417 -622 845 -775 1150 -257 514 -334
1044 -228 1567 70 344 229 698 441 981 30 39 57 72 59 72 2 0 -9 -26 -25 -57z
m1092 -5029 c64 -34 403 -269 421 -294 61 -79 233 -220 411 -335 66 -43 123
-81 127 -84 4 -3 -31 -7 -77 -8 -63 -1 -93 -7 -126 -24 -48 -24 -159 -107
-159 -119 0 -15 111 -111 179 -155 130 -84 300 -140 462 -152 102 -7 122 1
141 58 l14 42 97 -188 c100 -194 103 -204 52 -205 -38 0 -139 -30 -205 -61
-126 -59 -244 -175 -257 -253 -16 -98 52 -268 147 -369 81 -87 143 -119 240
-125 67 -4 82 -1 126 21 88 44 231 224 271 340 19 55 19 171 -1 226 -9 24 -16
45 -16 47 0 1 20 -6 45 -17 92 -41 195 -61 315 -62 63 -1 127 2 143 6 24 7 27
5 27 -16 0 -98 142 -347 344 -602 52 -66 115 -154 140 -195 177 -295 296 -718
296 -1051 0 -463 -172 -898 -507 -1281 -243 -278 -563 -471 -928 -562 -203
-50 -531 -64 -760 -32 -130 18 -327 63 -415 95 l-55 20 40 0 c182 4 500 102
723 223 112 61 282 234 388 393 274 412 360 850 238 1214 -69 206 -227 429
-404 572 -294 238 -677 288 -1038 136 -178 -76 -292 -178 -368 -332 -55 -112
-84 -221 -91 -349 l-6 -99 -24 47 c-64 125 -137 343 -172 515 -115 551 36
1088 417 1483 l55 57 -61 -14 c-260 -61 -485 -232 -618 -471 l-32 -55 -7 47
c-4 27 -5 134 -4 239 l4 190 -34 49 c-80 115 -212 214 -331 247 -25 6 -86 15
-137 18 l-92 6 93 155 c54 90 103 161 117 168 19 10 67 12 216 8 132 -4 194
-3 198 4 4 6 4 22 1 35 -7 28 -66 58 -208 104 l-97 32 116 150 c84 107 122
149 137 149 48 0 152 -33 242 -75 102 -47 141 -55 150 -30 18 45 -67 136 -198
213 l-78 45 30 37 c52 66 184 197 220 219 42 25 80 27 123 5z m-686 -1788
c-15 -37 -29 -364 -23 -511 32 -745 271 -1304 709 -1658 280 -226 573 -344
943 -377 228 -21 519 18 658 87 l49 25 -7 -29 c-24 -94 -122 -280 -207 -389
-265 -343 -701 -531 -1188 -511 -226 9 -384 52 -606 162 -599 298 -1055 981
-1155 1728 -17 130 -13 360 10 489 47 277 172 520 365 713 102 102 255 210
362 255 77 33 98 37 90 16z"/>
</g>
</svg>
